<svg xmlns="http://www.w3.org/2000/svg" xmlns:xlink="http://www.w3.org/1999/xlink" preserveAspectRatio="xMidYMid" width="26" height="26" viewBox="0 0 26 26">
  <defs>
    <style>
      .cls-1 {
        fill: #fff;
        fill-rule: evenodd;
      }
    </style>
  </defs>
  <path d="M25.130,25.999 L0.872,25.999 L0.000,25.127 L0.000,0.870 L0.872,-0.003 L25.130,-0.003 L26.002,0.870 L26.002,25.127 L25.130,25.999 ZM10.000,10.000 L10.000,16.000 L16.000,16.000 L16.000,10.000 L10.000,10.000 ZM16.000,8.000 L16.000,2.000 L10.000,2.000 L10.000,8.000 L16.000,8.000 ZM10.000,17.969 L10.000,24.000 L16.000,24.000 L16.000,17.969 L10.000,17.969 ZM2.000,24.000 L8.000,24.000 L8.000,17.969 L2.000,17.969 L2.000,24.000 ZM2.000,16.000 L8.000,16.000 L8.000,10.000 L2.000,10.000 L2.000,16.000 ZM2.000,8.000 L8.000,8.000 L8.000,2.000 L2.000,2.000 L2.000,8.000 ZM24.000,2.000 L18.000,2.000 L18.000,8.000 L24.000,8.000 L24.000,2.000 ZM24.000,10.000 L18.000,10.000 L18.000,16.000 L24.000,16.000 L24.000,10.000 ZM24.000,17.969 L18.000,17.969 L18.000,24.000 L24.000,24.000 L24.000,17.969 Z" class="cls-1"/>
</svg>
