<svg xmlns="http://www.w3.org/2000/svg" xmlns:xlink="http://www.w3.org/1999/xlink" preserveAspectRatio="xMidYMid" width="38" height="24" viewBox="0 0 38 24">
  <path fill='#fff' d="M37.553,13.325 C33.315,18.929 26.379,22.274 19.000,22.274 C17.146,22.274 15.319,22.062 13.557,21.657 L15.272,19.975 C16.491,20.182 17.738,20.290 19.000,20.290 C25.477,20.290 31.573,17.479 35.462,12.734 C33.537,10.386 31.070,8.512 28.285,7.217 L29.794,5.737 C32.839,7.267 35.510,9.442 37.553,12.143 L38.000,12.734 L37.553,13.325 ZM26.548,8.920 C26.710,9.533 26.797,10.176 26.797,10.839 C26.797,15.054 23.299,18.483 19.000,18.483 C18.324,18.483 17.669,18.398 17.043,18.239 L18.822,16.494 C18.882,16.496 18.940,16.499 19.000,16.499 C22.183,16.499 24.773,13.960 24.773,10.839 C24.773,10.780 24.770,10.723 24.769,10.664 L26.548,8.920 ZM27.113,4.591 C27.121,4.594 27.130,4.598 27.138,4.601 L25.544,6.163 C25.536,6.160 25.527,6.158 25.519,6.155 L25.311,6.358 C25.316,6.365 25.321,6.371 25.325,6.378 L23.870,7.805 C23.865,7.798 23.861,7.791 23.857,7.784 L15.885,15.600 C15.892,15.605 15.899,15.609 15.906,15.613 L14.450,17.040 C14.443,17.036 14.437,17.031 14.430,17.026 L12.192,19.221 C12.200,19.224 12.209,19.226 12.217,19.229 L10.632,20.784 C10.624,20.781 10.615,20.778 10.607,20.775 L7.613,23.710 C7.416,23.904 7.157,24.000 6.898,24.000 C6.639,24.000 6.380,23.904 6.182,23.710 C5.787,23.322 5.787,22.694 6.182,22.307 L8.607,19.930 C5.396,18.392 2.579,16.145 0.447,13.325 L-0.000,12.734 L0.447,12.143 C4.685,6.540 11.621,3.194 19.000,3.194 C21.025,3.194 23.016,3.448 24.927,3.929 L28.639,0.290 C29.034,-0.098 29.674,-0.098 30.070,0.290 C30.465,0.677 30.465,1.305 30.070,1.693 L27.113,4.591 ZM12.957,6.016 C8.847,7.178 5.182,9.509 2.538,12.734 C4.558,15.198 7.174,17.140 10.129,18.438 L12.958,15.664 C11.862,14.347 11.203,12.667 11.203,10.839 C11.203,9.011 11.861,7.332 12.957,6.016 ZM19.000,5.179 C15.817,5.179 13.227,7.718 13.227,10.839 C13.227,12.120 13.664,13.302 14.398,14.252 L22.481,6.327 C21.513,5.607 20.307,5.179 19.000,5.179 Z"/>
</svg>
