<svg xmlns="http://www.w3.org/2000/svg" xmlns:xlink="http://www.w3.org/1999/xlink" preserveAspectRatio="xMidYMid" width="38" height="19" viewBox="0 0 38 19">
  <path fill='#fff' d="M37.553,8.910 C33.315,3.331 26.379,-0.000 19.000,-0.000 C11.621,-0.000 4.685,3.331 0.447,8.910 L-0.000,9.499 L0.447,10.087 C4.685,15.666 11.621,18.998 19.000,18.998 C26.380,18.998 33.315,15.666 37.553,10.087 L38.000,9.499 L37.553,8.910 ZM24.773,7.611 C24.773,10.719 22.183,13.247 19.000,13.247 C15.817,13.247 13.227,10.719 13.227,7.611 C13.227,4.504 15.817,1.975 19.000,1.975 C22.183,1.975 24.773,4.504 24.773,7.611 ZM19.000,17.022 C12.523,17.022 6.428,14.223 2.538,9.499 C5.182,6.287 8.847,3.966 12.957,2.809 C11.862,4.120 11.203,5.792 11.203,7.611 C11.203,11.808 14.701,15.222 19.000,15.222 C23.299,15.222 26.797,11.808 26.797,7.611 C26.797,5.792 26.138,4.120 25.043,2.809 C29.153,3.966 32.818,6.287 35.462,9.499 C31.573,14.223 25.477,17.022 19.000,17.022 Z"/>
</svg>
